<svg version="1.1" xmlns="http://www.w3.org/2000/svg" xmlns:xlink="http://www.w3.org/1999/xlink">
  <symbol id="htmlacademy" viewBox="0 0 60 60">
    <path d="M30.2 5h-.2l-19.7 2.1v36.2l19.7 11.7 19.7-11.7v-36.2l-19.5-2.1zm17 36.8l-17.2 10.2-17.2-10.2v-14.8l17.1 10.2v1.8l-11.7-7v1.8l11.8 7.1v1.9l-11.8-7v1.8l11.8 7 11.9-7.1v-7.6l5.3-3.2v15.1zm-.1-17l-4.7 2.8-2.2 1.3-10.3-6.1v1.8l8.8 5.3h-.1l-.2.1-1.3.7-7.3-4.3v1.8l5.8 3.4-1.4.9-4.3-2.6v1.8l2.9 1.7-2.9 1.7-17-10.1 17-10.2 17.2 10zm.1-1.8l-17.3-10.2-17.1 10.2v-13.6l17.2-1.8 17.2 1.8v13.6z"/>
  </symbol>

  <symbol id="icon-cart" viewBox="0 0 32 32">
    <path d="M6 6 L30 6 27 19 9 19 M27 23 L10 23 5 2 2 2"/>
    <circle cx="25" cy="27" r="2"/>
    <circle cx="12" cy="27" r="2"/>
  </symbol>

  <symbol id="icon-compare" viewBox="0 0 1000 1000">
    <path d="M70.5,388.5v407.9h231.7V388.5c0-33.1-26.9-60-60-60H130.5C97.4,328.5,70.5,355.3,70.5,388.5z"/>
    <path d="M445.4,180.2c-33.1,0-60,26.9-60,60v556.2h231.7V240.2c0-33.1-26.9-60-60-60H445.4z"/>
    <path d="M760.3,24c-33.1,0-60,26.9-60,60v712.3H932V84c0-33.1-26.9-60-60-60H760.3z"/>
    <path d="M932,866.3h-9.3H709.6H607.8H394.7H292.9H79.8h-9.3c-33.1,0-60,26.9-60,60c0,33.1,26.9,60,60,60H932c33.1,0,60-26.9,60-60
      C992,893.2,965.1,866.3,932,866.3z"/>
  </symbol>

  <symbol id="icon-facebook" viewBox="0 0 8.673 18.944">
    <path d="M6.275,3.357c0.799,0,1.599,0,2.398,0c0-1.119,0-2.238,0-3.357c-0.959,0-1.92,0-2.878,0C2.656,0.181,1.54,2.387,1.948,6.115
  	H0v3.517h1.958c0,3.104,0,6.208,0,9.312c1.279,0,2.558,0,3.837,0c0-3.104,0-6.208,0-9.312h2.857V6.115H5.786
  	C5.765,5.07,5.75,3.709,6.275,3.357z"/>
  </symbol>

  <symbol id="icon-instagram" viewBox="0 0 32 32" preserveAspectRatio="xMidYMid meet">
    <g>
      <path d="M20,7c-0.551,0-1-0.449-1-1V4c0-0.551,0.449-1,1-1h2c0.551,0,1,0.449,1,1v2c0,0.551-0.449,1-1,1H20z
        "/>
      <path d="M13,9.188c-0.726,0-1.396,0.213-1.973,0.563c0.18-0.056,0.367-0.093,0.564-0.093
        c1.068,0,1.933,0.865,1.933,1.934c0,1.066-0.865,1.933-1.933,1.933s-1.933-0.866-1.933-1.933c0-0.199,0.039-0.386,0.094-0.565
        C9.4,11.604,9.188,12.274,9.188,13c0,2.107,1.705,3.813,3.813,3.813c2.105,0,3.813-1.705,3.813-3.813S15.105,9.188,13,9.188z"/>
      <g>
        <path d="M13,7c3.313,0,6,2.686,6,6s-2.688,6-6,6c-3.313,0-6-2.686-6-6S9.687,7,13,7 M13,5
          c-4.411,0-8,3.589-8,8s3.589,8,8,8s8-3.589,8-8S17.411,5,13,5L13,5z"/>
      </g>
      <path d="M21.125,0H4.875C2.182,0,0,2.182,0,4.875v16.25C0,23.818,2.182,26,4.875,26h16.25
        C23.818,26,26,23.818,26,21.125V4.875C26,2.182,23.818,0,21.125,0z M24,9h-6.537C18.416,10.063,19,11.461,19,13
        c0,3.314-2.688,6-6,6c-3.313,0-6-2.686-6-6c0-1.539,0.584-2.938,1.537-4H2V4.875C2,3.29,3.29,2,4.875,2h16.25
        C22.711,2,24,3.29,24,4.875V9z"/>
    </g>
  </symbol>

  <symbol id="icon-search" fill="none" stroke="currentcolor" stroke-linecap="round" stroke-linejoin="round" stroke-width="10%" viewBox="0 0 32 32">
      <circle cx="14" cy="14" r="12"/>
      <path d="M23 23 L30 30"/>
  </symbol>

  <symbol id="icon-twitter" viewBox="0 0 17.5 14.663">
    <g id="W6EeEF_1_">
    	<g>
    		<path fill-rule="evenodd" clip-rule="evenodd" d="M11.283,0.153c1.736-0.485,3.074,0.263,3.685,1.151
    			c0.694-0.226,1.372-0.47,2.072-0.691c-0.004,0.841-0.538,1.478-0.883,1.727C16.861,2.506,17.5,1.86,17.5,1.86
    			c-0.175,0.976-1.035,1.746-1.611,1.977C15.65,10.429,12.617,14.793,5.507,14.66c-0.538,0,0.077,0-0.46,0
    			c-0.422,0-4.29-0.45-5.047-1.843c2.341,0.192,4.011-0.412,4.835-1.15c-0.989-0.293-2.761-0.464-3.07-2.881
    			c0.362,0.105,0.583,0.223,1.228,0.117C1.757,8.067,0.385,7.366,0.461,5.218c0.294,0.32,1.1,0.523,1.381,0.461
    			c-0.725-0.235-2.03-3.281-0.921-4.836C2.794,2.654,4.769,4.364,8.29,4.528C8.506,2.288,9.461,0.787,11.283,0.153z"/>
    	</g>
    </g>
  </symbol>

  <symbol id="icon-user" viewBox="0 0 32 32">
      <path d="M22 11 C22 16 19 20 16 20 13 20 10 16 10 11 10 6 12 3 16 3 20 3 22 6 22 11 Z M4 30 L28 30 C28 21 22 20 16 20 10 20 4 21 4 30 Z"/>
  </symbol>

  <symbol id="icon-yes" width="21.698px" height="16.09px" viewBox="-82.357 4.875 21.698 16.09" enable-background="new -82.357 4.875 21.698 16.09"
   xml:space="preserve">
    <path d="M-60.953,5.167c-0.391-0.391-1.023-0.391-1.414,0L-75.75,18.551l-4.9-4.9c-0.391-0.391-1.023-0.391-1.414,0
      s-0.391,1.023,0,1.414l5.607,5.607c0.195,0.195,0.451,0.293,0.707,0.293s0.512-0.098,0.707-0.293l14.09-14.09
      C-60.562,6.191-60.562,5.558-60.953,5.167z"/>
  </symbol>
</svg>
